<?xml version="1.0" encoding="utf-8"?>
<!-- Generator: Adobe Illustrator 26.0.3, SVG Export Plug-In . SVG Version: 6.00 Build 0)  -->
<svg version="1.1" id="Layer_1" xmlns="http://www.w3.org/2000/svg" xmlns:xlink="http://www.w3.org/1999/xlink" x="0px" y="0px"
	 viewBox="0 0 841.89 595.28" style="enable-background:new 0 0 841.89 595.28;" xml:space="preserve">
<style type="text/css">
	.st0{fill:#C70000;}
	.st1{fill:#000249;}
	.st2{fill:none;}
</style>
<g>
	<polygon class="st0" points="525.06,259.88 316.83,259.88 280.39,292.42 403.1,292.42 403.1,489.11 438.79,489.11 438.79,292.42 
		561.5,292.42 	"/>
	<g>
		<g>
			<g>
				<g>
					<path class="st1" d="M247.66,375.3c0,8.72,3.15,10.9,11.62,11.38l41.89,1.94c23.25,0.97,31,13.08,31,29.06v42.62
						c0,15.98-7.75,28.82-31,28.82h-55.94c-23.25,0-31-12.83-31-28.82v-17.44l27.61-5.81v18.65c0,4.36,3.63,7.99,7.99,7.99h45.77
						c4.36,0,7.99-3.63,7.99-7.99v-29.3c0-8.23-2.66-10.41-11.62-10.9l-41.89-1.94c-23.25-0.97-31-12.83-31-28.82v-39.96
						c0-15.98,7.75-28.82,31-28.82h49.64c23.25,0,31,12.83,31,28.82v15.98l-27.61,5.81v-17.19c0-4.36-3.63-7.99-7.99-7.99h-39.47
						c-4.36,0-7.99,3.63-7.99,7.99V375.3z"/>
				</g>
			</g>
			<g>
				<g>
					<path class="st1" d="M585.52,315.97c23.25,0,31,12.83,31,28.82v46.25c0,15.98-7.75,28.57-31,28.57h-6.05l48.19,69.5h-35.6
						l-45.52-69.5h-16.47v69.5h-28.57V315.97H585.52z M530.06,394.19h49.88c4.36,0,7.99-3.63,7.99-7.99v-36.81
						c0-4.36-3.63-7.99-7.99-7.99h-49.88V394.19z"/>
				</g>
			</g>
		</g>
	</g>
	<polygon class="st0" points="645.59,304.76 421.06,176.93 196.3,304.76 421.06,138.15 497.16,194.73 497.16,194.62 524.6,214.99 	
		"/>
	<g>
		<rect x="404.78" y="209.48" class="st1" width="14.29" height="14.29"/>
		<rect x="422.83" y="209.48" class="st1" width="14.29" height="14.29"/>
		<rect x="404.78" y="227.15" class="st1" width="14.29" height="14.29"/>
		<rect x="422.83" y="227.15" class="st1" width="14.29" height="14.29"/>
	</g>
	<path class="st1" d="M298.07,254.36c9.99-6.06,20.11-11.88,30.16-17.83c10.1-5.86,20.22-11.69,30.37-17.45
		c10.13-5.81,20.34-11.48,30.5-17.22l30.62-17l1.05-0.58l1.04,0.6l29.65,17.01c9.85,5.73,19.73,11.41,29.53,17.22
		c9.83,5.76,19.62,11.59,29.4,17.45c9.73,5.94,19.53,11.76,29.2,17.81c-10.14-5.22-20.14-10.68-30.22-16.01
		c-10.03-5.42-20.04-10.86-30.01-16.37c-10-5.47-19.93-11.06-29.88-16.6l-29.77-16.8l2.08,0.01l-30.72,16.82
		c-10.28,5.53-20.52,11.14-30.84,16.6c-10.29,5.51-20.63,10.95-30.97,16.37C318.86,243.7,308.53,249.15,298.07,254.36z"/>
	<polygon class="st2" points="320.5,218.65 321.92,218.61 308.37,218.81 308.37,218.82 	"/>
	<path class="st2" d="M348.76,176.46c-1.13,0.31-3.22,0.62-4.4-0.21c-1.09,0.17-1.5,0.76-2.16,0.21c-0.67-0.6-0.42,1.82,1.62,2.4
		c0.59,0.32,2.53,1.08,3.75,1.53l2.31-2.67c-0.04,0-0.08,0-0.12-0.04C349.28,177.43,348.87,176.97,348.76,176.46z"/>
	<polygon points="497.16,194.62 497.16,194.73 421.06,138.15 	"/>
	<g>
		<g>
			<path class="st1" d="M251.05,231.76c0.72,0.99,1.27,0.98,2.27,0.33l4.93-3.26c2.73-1.82,4.62-1.09,5.95,0.73l3.55,4.85
				c1.33,1.82,1.52,3.93-1.13,5.86l-6.37,4.65c-2.65,1.93-4.6,1.12-5.93-0.7l-1.45-1.98l2.66-2.96l1.55,2.12
				c0.36,0.5,1.08,0.61,1.57,0.25l5.21-3.81c0.5-0.36,0.61-1.08,0.24-1.58l-2.44-3.33c-0.68-0.94-1.17-0.96-2.23-0.27l-4.93,3.26
				c-2.73,1.82-4.6,1.12-5.93-0.7l-3.32-4.55c-1.33-1.82-1.51-3.92,1.13-5.86l5.65-4.13c2.65-1.93,4.6-1.12,5.93,0.7l1.33,1.82
				l-2.66,2.96l-1.43-1.96c-0.36-0.5-1.08-0.61-1.57-0.24l-4.49,3.28c-0.5,0.36-0.61,1.08-0.25,1.57L251.05,231.76z"/>
			<path class="st1" d="M276.26,215.67l-6.04-8.27l3.25-2.38l14.4,19.71l-3.25,2.38l-6.28-8.6l-7.55,5.52l6.28,8.6l-3.25,2.38
				l-14.4-19.71l3.25-2.38l6.04,8.27L276.26,215.67z"/>
			<path class="st1" d="M295.32,219.29l-3.25,2.38l-14.4-19.71l3.25-2.38L295.32,219.29z"/>
			<path class="st1" d="M287.92,194.46l17.25,6.89l0.03-0.02l-9.29-12.71l3.09-2.26l14.4,19.71l-2.43,1.77l-18.1-7.24l-0.03,0.02
				l9.75,13.34l-3.09,2.26l-14.4-19.71L287.92,194.46z"/>
			<path class="st1" d="M318.62,189.83l-2.11-2.9l7.11-5.2l5.64,7.72c1.33,1.82,1.52,3.92-1.13,5.86l-7.14,5.22
				c-2.65,1.93-4.6,1.12-5.93-0.7l-9.61-13.15c-1.33-1.82-1.52-3.92,1.13-5.86l7.14-5.22c2.65-1.93,4.6-1.12,5.93,0.7l1.41,1.93
				l-2.68,2.93l-2.15-2.95l-7.8,5.7l10.17,13.92l7.8-5.7l-3.81-5.21L318.62,189.83z"/>
			<path class="st1" d="M335.46,189.95l-14.4-19.71l3.25-2.38l12.29,16.82l8.66-6.33l2.12,2.9L335.46,189.95z"/>
			<path class="st1" d="M349.89,179.41l-14.4-19.71l11.77-8.6l2.12,2.9l-8.52,6.23l3.93,5.38l5.07-3.71l2.17,2.98l-5.07,3.71
				l4.07,5.57l8.93-6.53l2.12,2.9L349.89,179.41z"/>
		</g>
		<g>
			<g>
				<path class="st1" d="M501.15,157.89c2.65,1.93,2.47,4.03,1.14,5.86l-3.84,5.27c-1.33,1.82-3.26,2.61-5.91,0.68l-0.69-0.5
					l-0.28,11.92l-4.06-2.96l0.58-11.7l-1.88-1.37l-5.77,7.92l-3.26-2.37l14.38-19.73L501.15,157.89z M488.34,162.19l5.69,4.14
					c0.5,0.36,1.21,0.25,1.57-0.25l3.06-4.19c0.36-0.5,0.25-1.21-0.25-1.57l-5.69-4.14L488.34,162.19z"/>
				<path class="st1" d="M510.78,190.08c-1.33,1.82-3.28,2.64-5.92,0.71l-7.42-5.41c-2.65-1.93-2.47-4.04-1.14-5.86l9.59-13.16
					c1.33-1.82,3.28-2.64,5.92-0.71l7.42,5.41c2.65,1.93,2.47,4.04,1.14,5.86L510.78,190.08z M517.39,174.16l-7.98-5.81
					l-10.15,13.94l7.98,5.81L517.39,174.16z"/>
				<path class="st1" d="M529.19,203.49c-1.33,1.82-3.27,2.64-5.92,0.71l-7.42-5.41c-2.65-1.93-2.47-4.04-1.14-5.86l9.59-13.16
					c1.33-1.82,3.27-2.64,5.92-0.71l7.42,5.41c2.65,1.93,2.47,4.03,1.14,5.86L529.19,203.49z M535.8,187.57l-7.97-5.81l-10.15,13.94
					l7.97,5.81L535.8,187.57z"/>
				<path class="st1" d="M530.86,209.74L545.23,190l11.51,8.38l-2.11,2.9l-8.25-6.01l-3.92,5.38l5.08,3.7l-2.17,2.98l-5.08-3.7
					l-6.17,8.47L530.86,209.74z"/>
				<path class="st1" d="M548.27,222.42l-3.26-2.37l14.38-19.73l3.25,2.37L548.27,222.42z"/>
				<path class="st1" d="M569.66,207.8l-1.29,18.53l0.03,0.02l9.27-12.72l3.09,2.25l-14.38,19.73l-2.43-1.77l1.37-19.45l-0.03-0.02
					l-9.73,13.36l-3.09-2.25l14.38-19.73L569.66,207.8z"/>
				<path class="st1" d="M583.44,235.63l2.11-2.9l7.12,5.19l-5.63,7.73c-1.33,1.82-3.27,2.64-5.92,0.71l-7.15-5.21
					c-2.65-1.93-2.47-4.04-1.14-5.86l9.59-13.16c1.33-1.82,3.28-2.64,5.92-0.71l7.15,5.21c2.65,1.93,2.47,4.04,1.14,5.86l-1.41,1.93
					l-3.61-1.66l2.15-2.95l-7.81-5.69l-10.15,13.93l7.81,5.69l3.8-5.22L583.44,235.63z"/>
			</g>
		</g>
	</g>
	<g>
		<path class="st1" d="M392.66,106.16h16.94v3.59h-6.45v20.83h-4.03v-20.83h-6.45V106.16z"/>
		<path class="st1" d="M430.33,126.51c0,2.25-1.09,4.06-4.37,4.06h-9.18c-3.28,0-4.37-1.81-4.37-4.06v-16.29
			c0-2.25,1.09-4.06,4.37-4.06h9.18c3.28,0,4.37,1.81,4.37,4.06V126.51z M426.3,109.75h-9.87v17.24h9.87V109.75z"/>
		<path class="st1" d="M451.3,116.92c0,2.25-1.09,4.03-4.37,4.03h-7.55v9.63h-4.03v-24.41h11.57c3.28,0,4.37,1.81,4.37,4.06V116.92z
			 M439.38,109.75v7.61h6.76c0.61,0,1.13-0.51,1.13-1.13v-5.36c0-0.61-0.51-1.13-1.13-1.13H439.38z"/>
	</g>
</g>
</svg>
