<?xml version="1.0" encoding="utf-8"?>
<!-- Generator: Adobe Illustrator 26.0.3, SVG Export Plug-In . SVG Version: 6.00 Build 0)  -->
<svg version="1.1" id="Layer_1" xmlns="http://www.w3.org/2000/svg" xmlns:xlink="http://www.w3.org/1999/xlink" x="0px" y="0px"
	 viewBox="0 0 841.89 595.28" style="enable-background:new 0 0 841.89 595.28;" xml:space="preserve">
<style type="text/css">
	.st0{fill:#C70000;}
	.st1{fill:#000249;}
	.st2{fill:none;}
</style>
<g>
	<g>
		<g>
			<path class="st0" d="M216.6,382.53c7.52,0,10.02,4.15,10.02,9.32v16.05c0,5.17-2.51,9.24-10.02,9.24h-1.17l14.8,21.38h-13.94
				l-14.02-21.38h-3.92v21.38H186.6v-55.99H216.6z M198.35,406.8h14.02c1.41,0,2.58-1.17,2.58-2.58v-8.77
				c0-1.41-1.17-2.58-2.58-2.58h-14.02V406.8z"/>
			<path class="st0" d="M279.87,429.2c0,5.17-2.51,9.32-10.02,9.32h-23.88c-7.52,0-10.02-4.15-10.02-9.32v-37.35
				c0-5.17,2.51-9.32,10.02-9.32h23.88c7.52,0,10.02,4.15,10.02,9.32V429.2z M268.12,392.86h-20.52v35.32h20.52V392.86z"/>
			<path class="st0" d="M333.9,429.2c0,5.17-2.51,9.32-10.02,9.32h-23.88c-7.52,0-10.02-4.15-10.02-9.32v-37.35
				c0-5.17,2.51-9.32,10.02-9.32h23.88c7.52,0,10.02,4.15,10.02,9.32V429.2z M322.16,392.86h-20.52v35.32h20.52V392.86z"/>
			<path class="st0" d="M344.32,438.52v-55.99h34.07v10.34h-22.32V405h14.41v10.57h-14.41v22.95H344.32z"/>
			<path class="st0" d="M396.94,438.52h-11.75v-55.99h11.75V438.52z"/>
			<path class="st0" d="M418.24,382.53l20.52,32.73h0.08v-32.73h11.2v55.99h-9.32l-21.61-34.54h-0.08v34.54h-11.28v-55.99H418.24z"
				/>
			<path class="st0" d="M482.06,416.59v-10.34h21.61v22.95c0,5.17-2.51,9.32-10.02,9.32h-23.1c-7.52,0-10.02-4.15-10.02-9.32v-37.35
				c0-5.17,2.51-9.32,10.02-9.32h23.1c7.52,0,10.02,4.15,10.02,9.32v5.48l-11.43,2.19v-6.66H472.2v35.32h20.05v-11.59H482.06z"/>
			<path class="st0" d="M532.18,438.52v-55.99h11.75v45.65h23.49v10.34H532.18z"/>
			<path class="st0" d="M573.84,438.52v-55.99h11.75v45.65h23.49v10.34H573.84z"/>
			<path class="st0" d="M615.19,391.85c0-5.17,2.51-9.32,10.02-9.32h20.05c7.52,0,10.02,4.15,10.02,9.32v8.07l-11.43,2.19v-9.24
				h-16.99v35.32h16.99V417.3l11.43,2.19v9.71c0,5.17-2.51,9.32-10.02,9.32h-20.05c-7.52,0-10.02-4.15-10.02-9.32V391.85z"/>
		</g>
	</g>
	<polygon class="st0" points="491.14,203.27 348.79,203.27 323.88,225.52 407.77,225.52 407.77,359.99 432.17,359.99 432.17,225.52 
		516.05,225.52 	"/>
	<g>
		<g>
			<g>
				<g>
					<path class="st1" d="M301.5,282.18c0,5.96,2.15,7.45,7.95,7.78l28.64,1.32c15.89,0.66,21.19,8.94,21.19,19.87v29.14
						c0,10.93-5.3,19.7-21.19,19.7h-38.24c-15.89,0-21.19-8.77-21.19-19.7v-11.92l18.87-3.97v12.75c0,2.98,2.48,5.46,5.46,5.46
						h31.29c2.98,0,5.46-2.48,5.46-5.46v-20.03c0-5.63-1.82-7.12-7.95-7.45l-28.64-1.32c-15.89-0.66-21.19-8.77-21.19-19.7v-27.32
						c0-10.93,5.3-19.7,21.19-19.7h33.94c15.89,0,21.19,8.77,21.19,19.7v10.93l-18.87,3.97v-11.75c0-2.98-2.48-5.46-5.46-5.46
						h-26.98c-2.98,0-5.46,2.48-5.46,5.46V282.18z"/>
				</g>
			</g>
			<g>
				<g>
					<path class="st1" d="M532.47,241.62c15.89,0,21.19,8.77,21.19,19.7v31.62c0,10.93-5.3,19.53-21.19,19.53h-4.14l32.94,47.51
						h-24.34l-31.12-47.51h-11.26v47.51h-19.53V241.62H532.47z M494.56,295.09h34.1c2.98,0,5.46-2.48,5.46-5.46v-25.16
						c0-2.98-2.48-5.46-5.46-5.46h-34.1V295.09z"/>
				</g>
			</g>
		</g>
	</g>
	<polygon class="st0" points="494.94,175.69 490.82,184.94 490.82,141.52 472.07,141.52 472.07,158.73 420.04,120.05 266.39,233.96 
		420.04,146.56 573.54,233.96 	"/>
	<g>
		<rect x="408.91" y="168.82" class="st1" width="9.77" height="9.77"/>
		<rect x="421.25" y="168.82" class="st1" width="9.77" height="9.77"/>
		<rect x="408.91" y="180.9" class="st1" width="9.77" height="9.77"/>
		<rect x="421.25" y="180.9" class="st1" width="9.77" height="9.77"/>
	</g>
	<path class="st1" d="M335.96,199.5c6.82-4.15,13.72-8.18,20.61-12.22c6.9-4.01,13.82-8,20.76-11.95
		c6.92-3.98,13.9-7.85,20.85-11.78l20.93-11.63l0.75-0.42l0.74,0.43l20.27,11.64c6.73,3.92,13.48,7.81,20.18,11.78
		c6.72,3.94,13.41,7.94,20.09,11.94c6.67,4.03,13.34,8.06,19.94,12.2c-6.94-3.56-13.8-7.24-20.68-10.92
		c-6.86-3.7-13.71-7.41-20.53-11.18c-6.84-3.73-13.63-7.56-20.44-11.34l-20.35-11.49l1.49,0.01l-21,11.49
		c-7.03,3.78-14.03,7.61-21.09,11.34c-7.04,3.76-14.11,7.47-21.18,11.17C350.2,192.27,343.12,195.95,335.96,199.5z"/>
	<g>
		<path class="st1" d="M229.68,459.91c0,1.17,0.42,1.47,1.56,1.53l5.64,0.26c3.13,0.13,4.17,1.76,4.17,3.91v5.74
			c0,2.15-1.04,3.88-4.17,3.88h-7.53c-3.13,0-4.17-1.73-4.17-3.88V469l3.72-0.78v2.51c0,0.59,0.49,1.08,1.08,1.08h6.16
			c0.59,0,1.08-0.49,1.08-1.08v-3.94c0-1.11-0.36-1.4-1.56-1.47l-5.64-0.26c-3.13-0.13-4.17-1.73-4.17-3.88v-5.38
			c0-2.15,1.04-3.88,4.17-3.88h6.68c3.13,0,4.17,1.73,4.17,3.88v2.15l-3.72,0.78v-2.31c0-0.59-0.49-1.08-1.08-1.08h-5.31
			c-0.59,0-1.08,0.49-1.08,1.08V459.91z"/>
		<path class="st1" d="M261.43,461.7v-9.78h3.85v23.3h-3.85v-10.17h-8.93v10.17h-3.85v-23.3h3.85v9.78H261.43z"/>
		<path class="st1" d="M277.34,475.23h-3.85v-23.3h3.85V475.23z"/>
		<path class="st1" d="M288.88,451.92l9.42,15.03h0.03v-15.03h3.65v23.3h-2.87l-9.88-15.78h-0.03v15.78h-3.65v-23.3H288.88z"/>
		<path class="st1" d="M318.41,465.64v-3.42h8.41v9.13c0,2.15-1.04,3.88-4.17,3.88h-8.44c-3.13,0-4.17-1.73-4.17-3.88V455.8
			c0-2.15,1.04-3.88,4.17-3.88h8.44c3.13,0,4.17,1.73,4.17,3.88v2.28l-3.72,0.75v-3.49h-9.22v16.46h9.22v-6.16H318.41z"/>
		<path class="st1" d="M334.58,475.23v-23.3h3.85v19.88h10.23v3.42H334.58z"/>
		<path class="st1" d="M354.89,475.23v-23.3h13.92v3.42h-10.07v6.36h6v3.52h-6v6.58h10.56v3.42H354.89z"/>
		<path class="st1" d="M384.19,451.92h16.17v3.42h-6.16v19.88h-3.85v-19.88h-6.16V451.92z"/>
		<path class="st1" d="M423.4,471.35c0,2.15-1.04,3.88-4.17,3.88h-8.77c-3.13,0-4.17-1.73-4.17-3.88V455.8
			c0-2.15,1.04-3.88,4.17-3.88h8.77c3.13,0,4.17,1.73,4.17,3.88V471.35z M419.56,455.34h-9.42v16.46h9.42V455.34z"/>
		<path class="st1" d="M446.68,462.19c0,2.15-1.04,3.85-4.17,3.85h-7.2v9.19h-3.85v-23.3h11.05c3.13,0,4.17,1.73,4.17,3.88V462.19z
			 M435.3,455.34v7.27h6.45c0.59,0,1.08-0.49,1.08-1.08v-5.12c0-0.59-0.49-1.08-1.08-1.08H435.3z"/>
		<path class="st1" d="M475.88,451.92c3.13,0,4.17,1.73,4.17,3.88v6.23c0,2.15-1.04,3.85-4.17,3.85h-0.82l6.49,9.35h-4.79
			l-6.13-9.35h-2.22v9.35h-3.85v-23.3H475.88z M468.42,462.45h6.71c0.59,0,1.08-0.49,1.08-1.08v-4.95c0-0.59-0.49-1.08-1.08-1.08
			h-6.71V462.45z"/>
		<path class="st1" d="M504.66,471.35c0,2.15-1.04,3.88-4.17,3.88h-8.77c-3.13,0-4.17-1.73-4.17-3.88V455.8
			c0-2.15,1.04-3.88,4.17-3.88h8.77c3.13,0,4.17,1.73,4.17,3.88V471.35z M500.82,455.34h-9.42v16.46h9.42V455.34z"/>
		<path class="st1" d="M529.67,471.35c0,2.15-1.04,3.88-4.17,3.88h-8.77c-3.13,0-4.17-1.73-4.17-3.88V455.8
			c0-2.15,1.04-3.88,4.17-3.88h8.77c3.13,0,4.17,1.73,4.17,3.88V471.35z M525.82,455.34h-9.42v16.46h9.42V455.34z"/>
		<path class="st1" d="M537.72,475.23v-23.3h13.59v3.42h-9.74v6.36h6v3.52h-6v10.01H537.72z"/>
		<path class="st1" d="M561.55,475.23h-3.85v-23.3h3.85V475.23z"/>
		<path class="st1" d="M573.09,451.92l9.42,15.03h0.03v-15.03h3.65v23.3h-2.87l-9.88-15.78h-0.03v15.78h-3.65v-23.3H573.09z"/>
		<path class="st1" d="M602.62,465.64v-3.42h8.41v9.13c0,2.15-1.04,3.88-4.17,3.88h-8.44c-3.13,0-4.17-1.73-4.17-3.88V455.8
			c0-2.15,1.04-3.88,4.17-3.88h8.44c3.13,0,4.17,1.73,4.17,3.88v2.28l-3.72,0.75v-3.49h-9.22v16.46h9.22v-6.16H602.62z"/>
	</g>
</g>
</svg>
